<?xml version="1.0" standalone="no"?>
<!DOCTYPE svg PUBLIC "-//W3C//DTD SVG 20010904//EN"
 "http://www.w3.org/TR/2001/REC-SVG-20010904/DTD/svg10.dtd">
<svg version="1.0" xmlns="http://www.w3.org/2000/svg"
 width="1000.000000pt" height="1000.000000pt" viewBox="0 0 1000.000000 1000.000000"
 preserveAspectRatio="xMidYMid meet">
<metadata>
Created by potrace 1.14, written by Peter Selinger 2001-2017
</metadata>
<g transform="translate(0.000000,1000.000000) scale(0.100000,-0.100000)"
fill="#000000" stroke="none">
<path d="M5879 9966 c-2 -2 -38 -7 -79 -10 -41 -4 -86 -8 -100 -10 -14 -2 -51
-7 -84 -11 -32 -4 -68 -8 -80 -10 -42 -7 -172 -27 -201 -31 -16 -3 -37 -7 -45
-9 -8 -2 -31 -6 -50 -9 -55 -9 -77 -14 -195 -46 -60 -17 -118 -32 -128 -35
-61 -15 -279 -85 -392 -125 -254 -92 -542 -245 -705 -376 -63 -50 -284 -278
-335 -344 -27 -36 -52 -67 -55 -70 -6 -6 -23 -30 -113 -163 -37 -54 -67 -99
-67 -101 0 -2 -24 -44 -54 -94 -69 -114 -231 -443 -289 -587 -190 -467 -340
-991 -431 -1505 -2 -14 -7 -36 -10 -50 -3 -14 -7 -38 -10 -55 -2 -16 -11 -73
-19 -125 -9 -52 -18 -115 -22 -140 -3 -25 -8 -56 -10 -70 -3 -14 -7 -43 -10
-65 -2 -22 -7 -58 -10 -80 -8 -57 -14 -106 -25 -215 -6 -52 -13 -112 -15 -132
-11 -84 -14 -115 -20 -168 -3 -30 -8 -72 -10 -92 -3 -21 -7 -55 -10 -75 -2
-21 -9 -83 -15 -138 -6 -55 -13 -116 -15 -135 -2 -19 -7 -66 -11 -105 -3 -38
-8 -83 -10 -100 -2 -16 -6 -66 -10 -110 -4 -44 -8 -91 -9 -105 -2 -14 -4 -92
-5 -175 -1 -82 -4 -141 -7 -130 -11 50 -56 237 -74 310 -24 95 -28 109 -33
133 -8 34 -118 517 -121 532 -2 8 -13 62 -25 120 -12 58 -24 114 -26 125 -2
11 -10 52 -18 90 -19 91 -53 269 -61 319 -3 21 -8 48 -11 60 -2 12 -7 37 -9
56 -2 19 -7 53 -10 75 -6 44 -7 53 -30 235 -9 69 -18 136 -21 150 -2 14 -6 50
-10 80 -3 30 -7 66 -9 80 -5 29 -10 70 -30 245 -22 183 -26 217 -30 245 -2 14
-7 57 -10 95 -4 39 -8 81 -11 95 -2 14 -6 48 -9 75 -3 28 -7 70 -10 95 -6 47
-13 119 -20 205 -12 153 -15 187 -20 260 -19 274 -116 476 -330 687 -232 229
-677 398 -940 356 -27 -4 -66 -10 -85 -13 -113 -17 -209 -67 -235 -122 -23
-48 -30 -158 -30 -478 1 -327 6 -408 50 -740 8 -60 17 -130 20 -155 4 -25 10
-70 16 -100 5 -30 11 -76 14 -101 3 -26 8 -58 10 -70 5 -25 34 -198 40 -234
10 -74 17 -115 25 -150 5 -22 12 -56 15 -75 3 -19 10 -60 15 -90 5 -30 12 -68
14 -85 3 -16 15 -77 27 -135 24 -118 26 -133 34 -175 7 -39 28 -135 56 -255
11 -52 23 -104 25 -115 2 -11 20 -78 39 -150 20 -71 37 -138 40 -148 11 -46
198 -617 270 -825 18 -53 57 -164 85 -247 28 -82 55 -159 60 -170 5 -11 18
-47 29 -80 49 -148 280 -781 331 -910 4 -11 14 -36 21 -55 76 -210 365 -806
556 -1145 50 -88 103 -182 118 -210 103 -184 433 -732 547 -908 15 -23 32 -51
37 -62 12 -28 75 -110 142 -186 31 -35 105 -120 165 -189 126 -145 135 -155
189 -196 133 -101 323 -162 440 -140 50 10 117 73 146 139 19 45 23 69 23 177
0 69 -1 150 -3 180 -6 94 19 882 34 1090 2 19 6 76 9 125 3 50 10 131 16 180
5 50 12 115 15 145 3 30 8 71 10 90 2 19 7 64 10 100 4 36 9 72 10 80 1 8 6
44 10 80 3 36 8 76 10 90 2 14 7 50 10 80 3 30 8 66 10 80 9 67 15 108 20 145
5 44 44 325 50 365 5 36 16 111 20 140 2 14 13 88 25 165 11 77 23 156 26 175
3 19 7 46 10 60 2 14 7 41 10 60 5 35 30 182 39 230 2 14 11 68 20 120 22 129
83 431 102 505 8 33 17 70 19 83 3 13 18 81 35 150 17 70 32 134 34 143 6 30
114 454 124 487 5 18 10 33 9 35 -1 7 119 430 182 642 43 143 56 173 57 133 0
-34 13 -244 18 -302 2 -28 7 -91 10 -141 9 -164 14 -239 20 -300 2 -33 7 -103
10 -155 3 -52 8 -117 10 -145 3 -27 7 -90 10 -140 3 -49 8 -117 10 -150 7 -96
14 -193 20 -290 3 -49 7 -119 10 -155 4 -61 8 -139 20 -375 8 -153 20 -309 30
-405 2 -25 7 -74 10 -110 4 -36 8 -81 10 -100 2 -19 6 -62 10 -95 12 -122 14
-141 20 -190 3 -27 8 -63 10 -80 2 -16 6 -50 9 -75 7 -58 32 -249 51 -392 8
-62 17 -129 19 -148 8 -61 26 -182 31 -204 2 -12 7 -43 11 -71 3 -27 8 -59 9
-70 3 -22 43 -275 50 -314 2 -13 7 -45 11 -70 4 -25 8 -55 10 -66 2 -11 6 -31
9 -45 37 -213 66 -380 70 -400 3 -14 8 -41 11 -60 2 -19 7 -46 10 -60 2 -14 7
-38 10 -55 2 -16 11 -61 19 -100 7 -38 16 -88 20 -110 3 -22 12 -74 20 -115
97 -497 108 -545 127 -534 7 4 8 3 4 -4 -28 -46 156 -211 354 -319 112 -60
219 -95 312 -101 98 -5 129 3 193 52 126 97 182 205 289 566 35 118 93 311
121 400 13 41 39 129 59 195 20 66 43 136 51 155 7 19 32 82 54 140 63 165
131 326 241 575 116 263 122 275 301 640 73 149 133 272 134 275 3 13 172 333
263 500 113 207 273 486 359 625 30 50 169 275 182 295 47 75 371 556 414 612
29 40 87 118 127 173 70 96 247 325 260 335 3 3 21 25 40 50 19 25 37 47 40
50 3 3 25 30 50 60 25 30 52 62 60 70 8 9 44 50 80 91 176 200 415 445 699
712 l61 57 0 1656 c0 1560 -1 1656 -17 1643 -9 -8 -24 -21 -33 -29 -9 -8 -52
-46 -95 -85 -188 -166 -522 -498 -729 -725 -32 -36 -75 -83 -96 -105 -31 -34
-132 -150 -204 -235 -69 -81 -174 -209 -250 -305 -48 -60 -92 -117 -99 -125
-173 -213 -546 -750 -747 -1074 -104 -167 -280 -465 -280 -473 0 -3 -15 -30
-34 -61 -92 -153 -485 -937 -725 -1446 -23 -47 -60 -125 -82 -174 -23 -48 -66
-138 -95 -201 -30 -62 -54 -115 -54 -117 0 -2 -16 -38 -36 -80 -53 -114 -183
-412 -206 -471 -10 -29 -22 -55 -26 -57 -4 -2 -7 19 -8 47 0 29 -4 104 -7 167
-34 595 -26 1619 18 2190 2 25 6 86 10 135 4 50 8 101 10 115 2 14 7 70 11
125 3 55 8 108 10 118 1 9 6 56 9 105 4 48 8 98 10 112 2 14 6 61 10 105 3 44
8 96 11 115 2 19 6 64 9 100 6 73 14 167 20 220 2 19 7 76 11 125 3 50 8 97 9
106 2 9 6 52 10 95 3 43 8 95 10 114 3 19 7 67 11 105 3 39 7 81 9 95 2 14 6
59 10 100 3 41 8 95 11 120 8 80 14 134 19 195 3 33 7 76 10 95 2 19 7 60 10
90 3 30 8 66 10 80 2 14 7 43 9 65 8 63 16 119 20 140 2 11 7 49 11 85 4 36 9
74 11 85 6 27 24 133 29 170 23 166 18 190 -55 229 -65 36 -201 53 -411 55
-92 0 -168 -1 -170 -3z"/>
</g>
</svg>
