<?xml version="1.0" standalone="no"?>
<!DOCTYPE svg PUBLIC "-//W3C//DTD SVG 20010904//EN"
 "http://www.w3.org/TR/2001/REC-SVG-20010904/DTD/svg10.dtd">
<svg version="1.0" xmlns="http://www.w3.org/2000/svg"
 width="500.000000pt" height="500.000000pt" viewBox="0 0 500.000000 500.000000"
 preserveAspectRatio="xMidYMid meet">
<metadata>
Created by potrace 1.14, written by Peter Selinger 2001-2017
</metadata>
<g transform="translate(0.000000,500.000000) scale(0.100000,-0.100000)"
fill="#000000" stroke="none">
<path d="M4695 4891 c-190 -57 -394 -208 -555 -411 -29 -36 -59 -74 -68 -85
-10 -11 -42 -54 -72 -95 -30 -41 -57 -77 -60 -80 -49 -44 -381 -563 -535 -835
-219 -387 -448 -866 -545 -1141 -43 -124 -49 -130 -51 -59 -1 33 -3 83 -5 110
-7 105 -7 577 0 720 12 234 15 278 31 455 2 25 7 81 10 125 4 44 8 96 10 115
2 19 6 71 10 115 4 44 8 96 10 115 2 19 6 69 10 110 3 41 7 91 10 110 2 19 7
64 10 100 10 105 15 140 31 240 36 226 36 251 -2 291 -15 16 -46 34 -69 40
-45 12 -213 7 -285 -10 -25 -5 -57 -12 -72 -15 -16 -3 -39 -8 -51 -11 -147
-31 -371 -140 -622 -303 -271 -177 -448 -409 -568 -747 -35 -96 -80 -261 -92
-335 -3 -19 -8 -42 -10 -50 -2 -8 -7 -33 -10 -55 -3 -22 -7 -49 -9 -60 -2 -11
-7 -54 -11 -95 -4 -41 -8 -86 -11 -100 -2 -14 -6 -79 -10 -145 -3 -66 -7 -147
-9 -180 -7 -113 -22 -457 -25 -555 -1 -37 -8 -19 -35 97 -18 77 -36 154 -39
170 -3 15 -21 105 -40 198 -19 94 -44 235 -55 315 -18 128 -23 169 -37 280 -1
14 -6 52 -9 85 -4 33 -8 71 -10 85 -2 14 -6 54 -10 90 -3 36 -8 85 -10 110 -4
43 -11 170 -20 350 -6 111 -11 133 -48 208 -50 102 -100 143 -271 226 -83 40
-167 80 -186 89 -19 8 -62 28 -95 42 -152 68 -161 67 -171 -16 -6 -51 -6 -330
0 -374 2 -16 7 -55 10 -85 4 -30 9 -62 11 -70 2 -8 7 -35 10 -60 4 -25 11 -67
16 -95 6 -27 12 -61 15 -75 10 -57 73 -345 79 -362 2 -7 6 -24 9 -38 46 -265
349 -1170 511 -1525 12 -27 37 -81 55 -120 18 -38 49 -108 70 -155 46 -104 81
-182 126 -278 19 -41 34 -76 34 -79 0 -9 168 -340 193 -380 15 -24 27 -46 27
-51 0 -4 8 -17 18 -28 9 -11 18 -24 19 -29 4 -25 101 -188 150 -253 70 -95
128 -150 178 -173 88 -40 121 -11 112 99 -3 37 -8 78 -11 92 -6 25 -7 424 -2
491 2 20 7 81 11 135 4 53 9 107 10 118 2 12 6 50 9 86 4 36 8 74 10 85 2 11
7 47 10 80 10 82 14 110 37 255 18 116 25 159 35 218 10 55 13 74 33 182 11
63 23 129 26 145 6 35 9 52 24 118 6 26 14 64 17 84 3 20 10 47 15 60 5 13 7
23 4 23 -2 0 2 21 10 48 8 26 16 61 19 77 5 25 92 358 124 470 13 46 19 20 26
-110 7 -122 11 -184 21 -335 4 -47 8 -119 10 -160 4 -73 11 -188 20 -320 2
-36 7 -105 10 -155 3 -49 7 -106 10 -125 3 -19 7 -61 10 -93 4 -55 10 -106 20
-187 3 -19 7 -55 10 -80 3 -25 10 -76 15 -115 6 -38 12 -90 15 -115 3 -25 10
-70 15 -100 5 -30 12 -77 15 -105 4 -27 8 -57 10 -65 3 -8 7 -33 10 -55 3 -22
10 -62 15 -90 5 -27 11 -63 14 -80 3 -16 14 -79 25 -140 11 -60 22 -126 25
-145 15 -85 30 -140 38 -140 5 0 6 -5 3 -11 -14 -22 57 -140 123 -207 99 -99
206 -145 253 -109 17 13 49 95 49 125 0 10 16 81 35 157 20 77 37 149 40 160
3 11 29 94 60 184 30 90 52 169 48 175 -3 6 -2 8 2 3 5 -4 27 39 50 95 211
521 685 1128 1305 1670 36 31 79 68 95 83 17 14 64 50 105 80 211 153 276 218
333 331 55 108 60 153 61 479 0 278 -7 493 -19 590 -12 103 -15 124 -20 180
-6 54 -31 240 -40 290 -1 11 -6 38 -10 60 -9 53 -33 116 -52 138 -20 21 -51
21 -128 -2z"/>
</g>
</svg>
